<?xml version="1.0" standalone="no"?><!DOCTYPE svg PUBLIC "-//W3C//DTD SVG 1.1//EN" "http://www.w3.org/Graphics/SVG/1.1/DTD/svg11.dtd"><svg t="1530626342187" class="icon" style="" viewBox="0 0 1024 1024" version="1.1" xmlns="http://www.w3.org/2000/svg" p-id="3048" xmlns:xlink="http://www.w3.org/1999/xlink" width="200" height="200"><defs><style type="text/css"></style></defs><path d="M783.36 379.904c-38.912 0-75.264 10.24-107.008 28.16 3.072 9.728 6.144 19.968 8.192 30.208C713.216 419.84 747.008 409.6 783.36 409.6c103.424 0 187.392 83.968 187.392 187.392 0 103.424-83.968 187.392-187.392 187.392-61.44 0-116.224-29.696-150.016-75.264-5.632 8.704-12.288 16.896-18.432 25.088 39.936 49.152 100.864 80.384 168.96 80.384 120.32 0 217.6-97.28 217.6-217.6-1.024-119.808-98.304-217.088-218.112-217.088z" fill="#28cf50" p-id="3049"></path><path d="M346.112 191.488c-178.176 0-322.56 144.384-322.56 322.56s144.384 322.56 322.56 322.56 322.56-144.384 322.56-322.56-144.384-322.56-322.56-322.56z m0 601.088c-153.6 0-278.016-124.928-278.016-278.016 0-153.6 124.928-278.016 278.016-278.016 153.6 0 278.016 124.928 278.016 278.016s-124.416 278.016-278.016 278.016z" fill="#28cf50" p-id="3050"></path><path d="M783.36 754.688c87.04 0 157.696-70.656 157.696-157.184 0-87.04-70.656-157.696-157.696-157.696-34.816 0-67.072 11.776-93.184 30.72 2.048 14.336 3.072 29.184 3.072 44.032 0 60.416-15.36 117.248-43.008 166.4 27.648 44.032 76.8 73.728 133.12 73.728z m-10.752-143.36c-31.232-10.24-52.224-25.088-52.224-53.248 0-26.112 17.92-46.08 49.152-51.712V478.72h28.672v25.6c18.944 0.512 32.256 5.12 42.496 9.728l-8.704 32.768c-7.168-3.584-20.992-10.24-41.984-10.24-18.944 0-25.088 8.192-25.088 16.384 0 9.216 10.24 15.872 35.328 24.576 34.304 12.288 48.128 28.16 48.128 54.784 0 25.6-17.92 48.128-51.2 53.248v29.696H768v-27.648c-19.456-1.024-38.4-6.144-49.152-12.288l8.704-33.792c12.288 6.656 29.184 12.8 48.128 12.8 16.896 0 28.16-6.656 28.16-17.92-0.512-11.264-9.728-17.92-31.232-25.088zM346.112 280.576c-129.024 0-233.472 104.96-233.472 233.472 0 129.024 104.96 233.472 233.472 233.472 129.024 0 233.984-104.96 233.984-233.472s-104.96-233.472-233.984-233.472z m19.968 365.056v44.544h-42.496v-40.96c-28.672-1.536-56.832-9.728-73.216-18.432l12.8-50.688c17.92 9.728 43.52 18.944 71.68 18.944 25.088 0 41.984-9.728 41.984-26.624 0-16.384-13.824-26.624-46.08-37.376-46.08-15.36-77.824-36.864-77.824-78.848 0-38.4 26.624-68.096 72.704-76.8v-40.96h42.496v37.888c28.672 1.024 47.616 7.168 62.976 14.336l-12.8 48.64c-10.752-5.12-31.232-14.848-61.952-14.848-28.16 0-36.864 12.288-36.864 24.576 0 13.824 14.848 23.04 52.224 36.864 51.2 17.92 71.68 41.984 71.68 80.896-1.024 37.888-27.648 70.656-77.312 78.848zM730.112 364.032c68.608 0 123.904-55.296 123.904-123.904 0-68.608-55.296-123.904-123.904-123.904-68.608 0-123.904 55.296-123.904 123.904 0 68.608 55.808 123.904 123.904 123.904z m0-230.912c58.88 0 107.008 48.128 107.008 107.008 0 58.88-48.128 107.008-107.008 107.008-58.88 0-107.008-48.128-107.008-107.008 0-58.88 48.128-107.008 107.008-107.008z" fill="#28cf50" p-id="3051"></path><path d="M730.112 329.728c49.664 0 89.6-40.448 89.6-89.6 0-49.664-40.448-89.6-89.6-89.6-49.664 0-90.112 40.448-90.112 89.6 0.512 49.664 40.96 89.6 90.112 89.6z m-6.144-81.408c-17.92-6.144-29.696-14.336-29.696-30.208 0-14.848 10.24-26.112 28.16-29.696v-15.872h16.384v14.848c10.752 0.512 18.432 3.072 24.064 5.632l-5.12 18.944c-4.096-2.048-11.776-5.632-24.064-5.632-10.752 0-14.336 4.608-14.336 9.216 0 5.12 5.632 9.216 19.968 14.336 19.968 7.168 27.648 15.872 27.648 31.232 0 14.848-10.24 27.136-29.184 30.72v16.896h-16.384V291.84c-11.264-0.512-22.016-3.584-28.16-7.168l5.12-19.456c7.168 3.584 16.896 7.168 27.648 7.168 9.728 0 15.872-3.584 15.872-10.24 0-6.144-5.12-9.728-17.92-13.824z" fill="#28cf50" p-id="3052"></path></svg>