<?xml version="1.0" standalone="no"?><!DOCTYPE svg PUBLIC "-//W3C//DTD SVG 1.1//EN" "http://www.w3.org/Graphics/SVG/1.1/DTD/svg11.dtd"><svg t="1530682708333" class="icon" style="" viewBox="0 0 1024 1024" version="1.1" xmlns="http://www.w3.org/2000/svg" p-id="1878" xmlns:xlink="http://www.w3.org/1999/xlink" width="200" height="200"><defs><style type="text/css"></style></defs><path d="M828.704099 196.575729C744.096116 112.384034 631.648434 66.016073 512 66.016073s-232.1288 46.367961-316.736783 130.559656C110.624271 280.800108 64 392.831501 64 512c0 119.199462 46.624271 231.199892 131.232254 315.424271 84.607983 84.191695 197.088348 130.559656 316.736783 130.559656s232.1288-46.367961 316.704099-130.559656c84.67163-84.255342 131.295901-196.288456 131.263217-315.455235C959.967316 392.800538 913.375729 280.800108 828.704099 196.575729zM736.00086 544.00086 544.00086 544.00086l0 192c0 17.695686-14.336138 32.00086-32.00086 32.00086s-32.00086-14.303454-32.00086-32.00086L479.99914 544.00086 288.00086 544.00086c-17.664722 0-32.00086-14.336138-32.00086-32.00086s14.336138-32.00086 32.00086-32.00086l192 0L480.00086 288.00086c0-17.664722 14.336138-32.00086 32.00086-32.00086s32.00086 14.336138 32.00086 32.00086l0 192 192 0c17.695686 0 32.00086 14.336138 32.00086 32.00086S753.696546 544.00086 736.00086 544.00086z" p-id="1879" fill="#1296db"></path></svg>