<?xml version="1.0" standalone="no"?><!DOCTYPE svg PUBLIC "-//W3C//DTD SVG 1.1//EN" "http://www.w3.org/Graphics/SVG/1.1/DTD/svg11.dtd"><svg t="1530628990012" class="icon" style="" viewBox="0 0 1024 1024" version="1.1" xmlns="http://www.w3.org/2000/svg" p-id="5161" xmlns:xlink="http://www.w3.org/1999/xlink" width="200" height="200"><defs><style type="text/css"></style></defs><path d="M956.44 178.67H691a109.83 109.83 0 0 0 15.45-55.56A111.23 111.23 0 0 0 595.33 12C562 12 532.38 27.06 512 50.39 491.62 27.06 462 12 428.67 12a111.23 111.23 0 0 0-111.11 111.11A109.83 109.83 0 0 0 333 178.67H67.56A55.62 55.62 0 0 0 12 234.22v166.67a55.62 55.62 0 0 0 55.56 55.56v472.22a83.42 83.42 0 0 0 83.33 83.33h722.22a83.42 83.42 0 0 0 83.33-83.33V456.44a55.63 55.63 0 0 0 55.56-55.55V234.22a55.63 55.63 0 0 0-55.56-55.55zM595.33 67.56a55.56 55.56 0 1 1 0 111.11h-55.55v-55.56a55.62 55.62 0 0 1 55.55-55.55z m-222.22 55.55a55.56 55.56 0 0 1 111.11 0v55.56h-55.55a55.62 55.62 0 0 1-55.56-55.56zM67.56 234.22h416.66v166.67H67.56z m83.33 722.22a27.81 27.81 0 0 1-27.78-27.78V456.44h361.11v500z m750-27.78a27.8 27.8 0 0 1-27.78 27.78H539.78v-500h361.11z m55.56-527.78H539.78V234.22h416.66l0.05 166.67z" p-id="5162" fill="#e16531"></path></svg>