<?xml version="1.0" standalone="no"?><!DOCTYPE svg PUBLIC "-//W3C//DTD SVG 1.1//EN" "http://www.w3.org/Graphics/SVG/1.1/DTD/svg11.dtd"><svg t="1530629030853" class="icon" style="" viewBox="0 0 1027 1024" version="1.1" xmlns="http://www.w3.org/2000/svg" p-id="6728" xmlns:xlink="http://www.w3.org/1999/xlink" width="200.5859375" height="200"><defs><style type="text/css"></style></defs><path d="M996.266667 622.933333c-10.666667 2.133333-19.2 4.266667-29.866667 4.266667-68.266667 0-121.6-53.333333-121.6-117.333333 0-64 55.466667-117.333333 121.6-117.333333 6.4 0 8.533333 0 17.066667 2.133333l27.733333-49.066667c-14.933333-4.266667-27.733333-6.4-44.8-6.4-64 0-119.466667 32-149.333333 81.066667-32-49.066667-87.466667-81.066667-149.333333-81.066667-17.066667 0-32 2.133333-44.8 6.4l27.733333 49.066667c6.4 0 10.666667-2.133333 17.066667-2.133333 68.266667 0 121.6 53.333333 121.6 117.333333 0 64-55.466667 117.333333-121.6 117.333333-10.666667 0-21.333333-2.133333-29.866667-4.266667-6.4-2.133333-29.866667 46.933333-29.866667 46.933333 19.2 6.4 38.4 10.666667 59.733333 10.666667 64 0 119.466667-32 149.333333-81.066667 32 49.066667 87.466667 81.066667 149.333333 81.066667 21.333333 0 40.533333-4.266667 59.733333-10.666667C1026.133333 669.866667 1002.666667 622.933333 996.266667 622.933333zM452.266667 341.333333c-29.866667 0-57.6 6.4-83.2 17.066667l23.466667 51.2c17.066667-8.533333 36.266667-12.8 57.6-12.8 72.533333 0 130.133333 55.466667 130.133333 123.733333 0 68.266667-57.6 123.733333-130.133333 123.733333-72.533333 0-130.133333-55.466667-130.133333-123.733333l0-51.2c0-85.333333-72.533333-153.6-160-153.6-85.333333 0-153.6 61.866667-160 140.8l0 0L0 682.666667l59.733333 0 0-209.066667c0-53.333333 44.8-96 100.266667-96 55.466667 0 100.266667 42.666667 100.266667 96l0 51.2c0 100.266667 85.333333 181.333333 189.866667 181.333333 104.533333 0 189.866667-81.066667 189.866667-181.333333C642.133333 422.4 556.8 341.333333 452.266667 341.333333z" p-id="6729" fill="#13227a"></path></svg>