<?xml version="1.0" standalone="no"?><!DOCTYPE svg PUBLIC "-//W3C//DTD SVG 1.1//EN" "http://www.w3.org/Graphics/SVG/1.1/DTD/svg11.dtd"><svg t="1530623811646" class="icon" style="" viewBox="0 0 1024 1024" version="1.1" xmlns="http://www.w3.org/2000/svg" p-id="6188" xmlns:xlink="http://www.w3.org/1999/xlink" width="200" height="200"><defs><style type="text/css"></style></defs><path d="M511.5709 90.0536c-233.1771 0-422.2065 189.0284-422.2065 422.2065 0 233.1781 189.0284 422.2065 422.2065 422.2065 233.1791 0 422.2075-189.0284 422.2075-422.2065C933.7774 279.082 744.7491 90.0536 511.5709 90.0536zM679.2376 484.1871l0 57.428992L568.986624 541.616092l0 83.2 110.592 0 0 55.04-111.104 0 0 111.616-111.616 0 0-111.36-113.92 0 0-55.552 113.92 0 0-83.2-114.176 0 0-56.576 113.664 0-136.192-227.925 73.044992 0 120.4193 196.267 118.5137-196.267 70.313984 0-134.144 227.328L679.237632 484.187092z" p-id="6189" fill="#e39028"></path></svg>