<?xml version="1.0" standalone="no"?><!DOCTYPE svg PUBLIC "-//W3C//DTD SVG 1.1//EN" "http://www.w3.org/Graphics/SVG/1.1/DTD/svg11.dtd"><svg t="1530619359580" class="icon" style="" viewBox="0 0 1024 1024" version="1.1" xmlns="http://www.w3.org/2000/svg" p-id="4044" xmlns:xlink="http://www.w3.org/1999/xlink" width="200" height="200"><defs><style type="text/css"></style></defs><path d="M849.52381 974.048781 296.519747 974.048781C254.7965 974.048781 220.952381 940.537079 220.952381 899.361596L220.952381 24.97561 195.809524 49.951219 748.813585 49.951219C790.518054 49.951219 824.380951 83.595356 824.380951 124.977297L824.380951 877.099467C824.380951 890.893116 835.637792 902.075076 849.52381 902.075076 863.409826 902.075076 874.666667 890.893116 874.666667 877.099467L874.666667 124.977297C874.666667 56.010216 818.292258 0 748.813585 0L195.809524 0 170.666667 0 170.666667 24.97561 170.666667 899.361596C170.666667 968.160181 227.060385 1024 296.519747 1024L849.52381 1024C863.409826 1024 874.666667 1012.818039 874.666667 999.02439 874.666667 985.230741 863.409826 974.048781 849.52381 974.048781L849.52381 974.048781Z" p-id="4045" fill="#ffffff"></path><path d="M325.488889 178.210097C325.488889 165.120605 336.197087 154.501897 349.448428 154.501897L686.773794 154.501897C699.931341 154.501897 710.733333 165.242514 710.733333 178.210097L710.733333 752.651691C710.733333 765.741184 700.025135 776.359891 686.773794 776.359891L349.448428 776.359891C336.290881 776.359891 325.488889 765.619275 325.488889 752.651691L325.488889 178.210097 325.488889 178.210097ZM277.333333 178.210097 277.333333 752.651691C277.333333 792.027497 309.684774 824.195121 349.448428 824.195121L686.773794 824.195121C726.60221 824.195121 758.88889 792.178268 758.88889 752.651691L758.88889 178.210097C758.88889 138.834292 726.537449 106.666667 686.773794 106.666667L349.448428 106.666667C309.620012 106.666667 277.333333 138.68352 277.333333 178.210097L277.333333 178.210097Z" p-id="4046" fill="#ffffff"></path><path d="M522.666667 949.073171C550.438701 949.073171 572.952382 926.709248 572.952382 899.121952 572.952382 871.534654 550.438701 849.170731 522.666667 849.170731 494.894633 849.170731 472.380951 871.534654 472.380951 899.121952 472.380951 926.709248 494.894633 949.073171 522.666667 949.073171L522.666667 949.073171ZM522.666667 899.121952C522.666667 899.121952 522.666667 899.121952 522.666667 899.121952 522.666667 899.121952 522.666667 899.121952 522.666667 899.121952 522.666667 899.121952 522.666667 899.121952 522.666667 899.121952 522.666667 899.121952 522.666667 899.121952 522.666667 899.121952L522.666667 899.121952Z" p-id="4047" fill="#ffffff"></path></svg>