<?xml version="1.0" standalone="no"?><!DOCTYPE svg PUBLIC "-//W3C//DTD SVG 1.1//EN" "http://www.w3.org/Graphics/SVG/1.1/DTD/svg11.dtd"><svg t="1530626305526" class="icon" style="" viewBox="0 0 1024 1024" version="1.1" xmlns="http://www.w3.org/2000/svg" p-id="2163" xmlns:xlink="http://www.w3.org/1999/xlink" width="200" height="200"><defs><style type="text/css"></style></defs><path d="M323.693 321.673l0 428.196c0 10.581 8.615 19.197 19.197 19.197l343.354 0c10.581 0 19.197-8.615 19.197-19.197l0-429.616-190.683 84.35-191.065-82.93zM630.129 459.134c5.066 4.656 5.421 12.602 0.765 17.667l-83.231 81.538 73.905 0 0 25.013-94.495 0 0 26.365 61.139 0 0 25.013-61.139 0 0 74.902-25.013 0 0-74.902-61.139 0 0-25.013 61.139 0 0-26.365-94.495 0 0-25.013 73.905 0-83.231-81.538c-4.656-5.066-4.301-13.025 0.765-17.667 5.066-4.656 13.025-4.301 17.667 0.765l97.894 95.901 97.894-95.901c4.656-5.079 12.602-5.421 17.667-0.765zM705.331 271.319c-0.655-9.995-8.915-17.954-19.074-17.954l-32.809 0 0-0.068-310.559 0.068c-10.581 0-19.197 8.615-19.197 19.197l0 0.233 190.697 83.026 190.942-84.5zM514.649 20.998c-270.308 0-490.223 219.915-490.223 490.223s219.915 490.223 490.223 490.223c270.308 0 490.223-219.915 490.223-490.223s-219.915-490.223-490.223-490.223zM746.414 749.869c0 33.178-26.993 60.157-60.157 60.157l-343.367 0c-33.178 0-60.157-26.993-60.157-60.157l0-477.307c0-33.178 26.993-60.157 60.157-60.157l343.354 0c33.178 0 60.157 26.993 60.157 60.157l0 477.307z" p-id="2164" fill="#d81e06"></path></svg>