<?xml version="1.0" standalone="no"?><!DOCTYPE svg PUBLIC "-//W3C//DTD SVG 1.1//EN" "http://www.w3.org/Graphics/SVG/1.1/DTD/svg11.dtd"><svg t="1530623865478" class="icon" style="" viewBox="0 0 1024 1024" version="1.1" xmlns="http://www.w3.org/2000/svg" p-id="6505" xmlns:xlink="http://www.w3.org/1999/xlink" width="200" height="200"><defs><style type="text/css"></style></defs><path d="M628.621091 581.941955c15.165398 0 27.472702-12.272511 27.472702-27.408233 0-15.111163-12.308327-27.382651-27.472702-27.382651l-35.507702 0 43.008536-89.642646c5.558599-10.155291-0.435928-24.786523-13.385868-32.67212-12.94994-7.882528-27.952632-6.048763-33.521464 4.105504l-55.93801 116.615974c-0.261966 0.502443-0.186242 1.092891-0.39295 1.593288l-14.838963 0c-0.316202-0.939395-0.25071-2.010797-0.756223-2.904143l-55.279001-111.1331c-5.504364-9.738805-20.387329-11.510148-33.218566-3.929496-12.830213 7.55507-18.770506 21.598924-13.266142 31.335682l43.095517 86.631056-43.399439 0c-15.176654 0-27.472702 12.272511-27.472702 27.386744 0 15.132652 12.297071 27.40414 27.472702 27.40414l79.608106 0 0 36.294624-79.608106 0c-15.176654 0-27.472702 12.248975-27.472702 27.382651 0 15.135722 12.297071 27.38572 27.472702 27.38572l79.608106 0 0 79.94682c0 14.915711 12.119015 27.015284 27.088962 27.015284 14.959713 0 27.092032-12.100596 27.092032-27.015284l0-79.94682 79.609129 0c15.165398 0 27.472702-12.249999 27.472702-27.38572 0-15.133675-12.308327-27.382651-27.472702-27.382651l-79.609129 0 0-36.294624 79.610152 0L628.620068 581.941955zM879.708709 785.756921l0-0.26606-0.013303 0c-0.146333-12.292977-10.145058-22.215978-22.471804-22.215978-12.417821 0-22.485107 10.067286-22.485107 22.485107 0 1.076518 0.101307 2.12643 0.24764 3.163039l0 35.766598c0 12.33698-10.009981 22.364357-22.361287 22.364357L208.856795 847.053985c-12.351306 0-22.364357-10.027377-22.364357-22.364357L186.492438 199.780069l306.629609 142.592602 28.809139 12.441357 28.809139-12.441357 284.245809-132.184555 0 371.864356c-0.146333 1.036609-0.24764 2.087545-0.24764 3.163039 0 12.417821 10.067286 22.485107 22.485107 22.485107 12.245905 0 22.185278-9.794064 22.459524-21.974477l0.026606 0 0-0.508583c0-0.001023 0-0.002047 0-0.002047l0-0.002047L879.709733 198.557218c0.004093-4.748141-0.493234-9.381671-1.434675-13.850449 0 0-2.087545-9.124821-5.815449-16.737196-1.225921-2.501984-2.471284-5.086855-6.980995-10.732435-12.279674-15.684214-31.390941-25.762757-52.851719-25.762757L208.852702 131.47438c-37.042661 0-67.083861 30.02585-67.083861 67.083861l0 626.134457c0 37.058011 30.040177 67.086931 67.083861 67.086931l603.77317 0c37.047778 0 67.083861-30.029944 67.083861-67.086931l0-38.927591c0-0.001023 0-0.002047 0-0.002047C879.708709 785.757944 879.708709 785.757944 879.708709 785.756921zM797.387819 176.195931 521.931187 304.292378 246.477624 176.195931 797.387819 176.195931z" p-id="6506" fill="#d81e06"></path></svg>