<?xml version="1.0" standalone="no"?><!DOCTYPE svg PUBLIC "-//W3C//DTD SVG 1.1//EN" "http://www.w3.org/Graphics/SVG/1.1/DTD/svg11.dtd"><svg t="1530628945293" class="icon" style="" viewBox="0 0 1027 1024" version="1.1" xmlns="http://www.w3.org/2000/svg" p-id="3912" xmlns:xlink="http://www.w3.org/1999/xlink" width="200.5859375" height="200"><defs><style type="text/css"></style></defs><path d="M920.525263 309.673259l-100.987843 0c-16.134285-56.609402-40.420169-108.690702-72.050734-153.332689-30.621155-43.216398-66.533574-77.299261-106.741075-101.302266C598.040022 29.544586 552.491398 16.618639 505.367604 16.618639c-47.124811 0-92.672418 12.925947-135.378006 38.419664-40.208518 24.003005-76.120937 58.085868-106.741075 101.302266-31.630565 44.641987-55.915432 96.723288-72.050734 153.332689l-93.525126 0c-50.044164 0-90.758405 40.714241-90.758405 90.758405l0 531.674344c0 50.045182 40.714241 90.758405 90.758405 90.758405l822.853618 0c50.045182 0 90.758405-40.714241 90.758405-90.758405L1011.284686 400.431664C1011.283668 350.3875 970.570445 309.673259 920.525263 309.673259zM317.215345 194.578092c51.090206-72.107717 117.91073-111.818653 188.152259-111.818653 70.240512 0 137.061035 39.710936 188.151241 111.818653 23.710968 33.46521 42.780887 72.143332 56.804771 115.095167L260.411591 309.673259C274.435476 266.721424 293.504377 228.043302 317.215345 194.578092zM945.142868 932.106008c0 13.574127-11.044496 24.617606-24.617606 24.617606L97.671645 956.723614c-13.574127 0-24.617606-11.044496-24.617606-24.617606L73.054039 400.431664c0-13.574127 11.043478-24.617606 24.617606-24.617606l78.747236 0c-5.51716 33.512017-8.370373 68.10569-8.370373 103.281402 0 11.903309 0.336809 23.875811 0.998217 35.784208l-4.559645 0c-18.468546 0-33.579175 15.110629-33.579175 33.579175l0 2.882721c0 18.468546 15.110629 33.579175 33.579175 33.579175l72.054805 0c18.468546 0 33.579175-15.110629 33.579175-33.579175l0-2.882721c0-18.468546-15.110629-33.579175-33.579175-33.579175l-1.239377 0c-0.735689-11.891098-1.114218-23.874794-1.114218-35.784208 0-35.270345 3.162548-69.824333 9.394029-103.281402l523.5665 0c6.231481 33.457069 9.394029 68.011058 9.394029 103.281402 0 12.214679-0.39481 24.512798-1.169166 36.710179-14.746346 3.535989-25.795929 16.861834-25.795929 32.652186l0 2.882721c0 18.468546 15.110629 33.579175 33.579175 33.579175l72.054805 0c18.468546 0 33.579175-15.110629 33.579175-33.579175l0-2.882721c0-18.468546-15.110629-33.579175-33.579175-33.579175l-13.526302 0c0.66039-11.910432 0.998217-23.882934 0.998217-35.784208 0-35.175712-2.852195-69.769386-8.370373-103.281402l86.209953 0c13.574127 0 24.617606 11.043478 24.617606 24.617606L945.140833 932.106008z" p-id="3913" fill="#0fe41d"></path></svg>