<?xml version="1.0" standalone="no"?><!DOCTYPE svg PUBLIC "-//W3C//DTD SVG 1.1//EN" "http://www.w3.org/Graphics/SVG/1.1/DTD/svg11.dtd"><svg t="1530630608509" class="icon" style="" viewBox="0 0 1024 1024" version="1.1" xmlns="http://www.w3.org/2000/svg" p-id="3114" xmlns:xlink="http://www.w3.org/1999/xlink" width="200" height="200"><defs><style type="text/css"></style></defs><path d="M723.765248 942.08 309.92384 942.08c-24.301568 0-39.58784-18.874368-39.58784-43.175936L270.336 130.351104C270.336 106.051584 285.620224 81.92 309.92384 81.92l413.843456 0C748.068864 81.92 755.712 106.051584 755.712 130.351104l0 768.55296c0 24.301568-8.01792 43.175936-32.323584 43.175936L723.765248 942.08zM516.440064 898.904064c16.20992 0 29.964288-13.785088 29.964288-29.964288 0-16.20992-13.754368-29.157376-29.964288-29.157376s-29.157376 12.947456-29.157376 29.157376C487.282688 885.118976 500.230144 898.904064 516.440064 898.904064L516.440064 898.904064zM729.088 167.936l-19.9168 0L324.513792 167.936 299.008 167.936l0 630.784 25.505792 0 384.657408 0L729.088 798.72 729.088 167.936z" p-id="3115" fill="#1296db"></path></svg>