<?xml version="1.0" standalone="no"?><!DOCTYPE svg PUBLIC "-//W3C//DTD SVG 1.1//EN" "http://www.w3.org/Graphics/SVG/1.1/DTD/svg11.dtd"><svg t="1530619009767" class="icon" style="" viewBox="0 0 1024 1024" version="1.1" xmlns="http://www.w3.org/2000/svg" p-id="2479" xmlns:xlink="http://www.w3.org/1999/xlink" width="200" height="200"><defs><style type="text/css"></style></defs><path d="M818.688 587.52c-16.128-29.952-38.912-55.04-67.072-73.984-29.696-19.968-62.208-34.56-96.768-43.52-54.016-13.568-93.184-15.36-130.56-16.64L524.288 125.952c27.136 1.024 52.992 4.864 77.056 11.008 29.184 7.424 54.528 19.712 75.52 36.096 20.736 16.384 37.12 37.376 49.152 62.72 11.776 25.344 17.92 57.344 17.92 94.72 0 14.08 11.52 25.6 25.6 25.6s25.6-11.52 25.6-25.6c0-44.8-7.68-83.968-22.784-116.48-15.36-32.768-36.864-59.904-63.744-81.152-26.624-20.992-58.624-36.096-94.72-45.568-28.16-7.168-58.112-11.52-89.6-12.8L524.288 26.112c0-14.08-11.264-25.6-25.344-25.6-14.336 0-25.6 11.52-25.6 25.6l0 48.384c-26.368 1.28-49.152 4.352-70.144 9.216-133.12 31.232-184.832 127.488-188.672 200.192-2.56 48.384 7.936 164.608 160.768 203.008 38.912 9.728 70.144 13.568 98.048 15.616l0 375.3216c-28.416-2.304-55.296-7.168-80.384-14.848-34.816-10.752-65.536-27.136-91.392-48.896-25.344-21.248-45.824-47.872-60.416-79.104-14.848-31.232-22.784-68.352-23.552-110.592-0.512-14.08-12.032-25.6-26.112-24.832-14.08 0.256-25.344 12.032-25.088 26.112 1.024 49.152 10.752 93.44 28.416 131.072 17.92 37.888 42.752 70.4 73.984 96.512 30.976 26.112 67.84 45.824 109.056 58.624 29.952 8.96 61.952 14.848 95.488 17.152l0 68.8384c0 14.336 11.264 25.6 25.6 25.6 14.08 0 25.344-11.264 25.344-25.344l0-68.0704c31.488-0.512 64-4.096 96.768-9.984 38.912-7.168 74.752-19.968 106.752-37.888 32.512-18.688 60.16-43.52 81.664-74.24 22.272-31.744 33.792-72.192 33.792-120.064C843.264 643.0976 834.816 617.728 818.688 587.52zM473.344 451.328c-24.832-2.048-51.968-5.632-85.504-14.08-106.24-26.624-125.184-96.512-122.112-150.528 1.024-19.968 13.056-121.088 149.248-153.088 17.408-4.096 36.352-6.656 58.368-7.68L473.344 451.328zM767.488 778.5216c-16.896 24.32-38.912 44.288-65.024 59.136-26.88 15.104-57.344 26.112-90.624 32.256-29.696 5.376-59.136 8.448-87.552 9.216L524.288 504.576c35.328 1.024 69.888 2.816 118.016 15.104 28.672 7.168 55.808 19.456 80.64 36.096 21.504 14.336 38.4 33.28 50.688 56.064 12.288 22.528 18.432 39.7056 18.432 75.8016C792.064 725.0176 783.872 755.4816 767.488 778.5216z" p-id="2480"></path></svg>